# Blender 4.2.0
# www.blender.org
mtllib 1635.mtl
o BézierCurve
v -6.636692 0.000000 -0.442500
v -6.636692 0.000000 0.442500
v -6.234761 0.000000 -0.442500
v -6.234761 0.000000 0.442500
v -5.832829 0.000000 -0.442500
v -5.832829 0.000000 0.442500
v -5.430898 0.000000 -0.442500
v -5.430898 0.000000 0.442500
v -5.028967 0.000000 -0.442500
v -5.028967 0.000000 0.442500
v -4.627036 0.000000 -0.442500
v -4.627036 0.000000 0.442500
v -4.225105 0.000000 -0.442500
v -4.225105 0.000000 0.442500
v -3.823174 0.000000 -0.442500
v -3.823174 0.000000 0.442500
v -3.421242 0.000000 -0.442500
v -3.421242 0.000000 0.442500
v -3.019311 0.000000 -0.442500
v -3.019311 0.000000 0.442500
v -2.617380 0.000000 -0.442500
v -2.617380 0.000000 0.442500
v -2.215449 0.000000 -0.442500
v -2.215449 0.000000 0.442500
v -1.813518 0.000000 -0.442500
v -1.813518 0.000000 0.442500
v -1.411586 0.000000 -0.442500
v -1.411586 0.000000 0.442500
v -1.009656 0.000000 -0.442500
v -1.009656 0.000000 0.442500
v -0.607724 0.000000 -0.442500
v -0.607724 0.000000 0.442500
v -0.205793 0.000000 -0.442500
v -0.205793 0.000000 0.442500
v 0.196138 0.000000 -0.442500
v 0.196138 0.000000 0.442500
v 0.598069 0.000000 -0.442500
v 0.598069 0.000000 0.442500
v 1.000000 0.000000 -0.442500
v 1.000000 0.000000 0.442500
v -6.636692 0.442500 -0.000000
v -6.636692 -0.442500 0.000000
v -6.234761 0.442500 -0.000000
v -6.234761 -0.442500 0.000000
v -5.832829 0.442500 -0.000000
v -5.832829 -0.442500 0.000000
v -5.430898 0.442500 -0.000000
v -5.430898 -0.442500 0.000000
v -5.028967 0.442500 -0.000000
v -5.028967 -0.442500 0.000000
v -4.627036 0.442500 -0.000000
v -4.627036 -0.442500 0.000000
v -4.225105 0.442500 -0.000000
v -4.225105 -0.442500 0.000000
v -3.823174 0.442500 -0.000000
v -3.823174 -0.442500 0.000000
v -3.421242 0.442500 -0.000000
v -3.421242 -0.442500 0.000000
v -3.019311 0.442500 -0.000000
v -3.019311 -0.442500 0.000000
v -2.617380 0.442500 -0.000000
v -2.617380 -0.442500 0.000000
v -2.215449 0.442500 -0.000000
v -2.215449 -0.442500 0.000000
v -1.813518 0.442500 -0.000000
v -1.813518 -0.442500 0.000000
v -1.411586 0.442500 -0.000000
v -1.411586 -0.442500 0.000000
v -1.009656 0.442500 -0.000000
v -1.009656 -0.442500 0.000000
v -0.607724 0.442500 -0.000000
v -0.607724 -0.442500 0.000000
v -0.205793 0.442500 -0.000000
v -0.205793 -0.442500 0.000000
v 0.196138 0.442500 -0.000000
v 0.196138 -0.442500 0.000000
v 0.598069 0.442500 -0.000000
v 0.598069 -0.442500 0.000000
v 1.000000 0.442500 -0.000000
v 1.000000 -0.442500 0.000000
v -6.450841 0.296475 0.292050
v -6.450841 0.039825 0.292050
v -6.048911 0.296475 0.292050
v -6.048911 0.039825 0.292050
v -5.646979 0.296475 0.292050
v -5.646979 0.039825 0.292050
v -5.245048 0.296475 0.292050
v -5.245048 0.039825 0.292050
v -4.843117 0.296475 0.292050
v -4.843117 0.039825 0.292050
v -4.441185 0.296475 0.292050
v -4.441185 0.039825 0.292050
v -4.039255 0.296475 0.292050
v -4.039255 0.039825 0.292050
v -3.637324 0.296475 0.292050
v -3.637324 0.039825 0.292050
v -3.235392 0.296475 0.292050
v -3.235392 0.039825 0.292050
v -2.833461 0.296475 0.292050
v -2.833461 0.039825 0.292050
v -2.431530 0.296475 0.292050
v -2.431530 0.039825 0.292050
v -2.029599 0.296475 0.292050
v -2.029599 0.039825 0.292050
v -1.627668 0.296475 0.292050
v -1.627668 0.039825 0.292050
v -1.225736 0.296475 0.292050
v -1.225736 0.039825 0.292050
v -0.823806 0.296475 0.292050
v -0.823806 0.039825 0.292050
v -0.421874 0.296475 0.292050
v -0.421874 0.039825 0.292050
v -0.019943 0.296475 0.292050
v -0.019943 0.039825 0.292050
v 0.381988 0.296475 0.292050
v 0.381988 0.039825 0.292050
v 0.783919 0.296475 0.292050
v 0.783919 0.039825 0.292050
v 1.185850 0.296475 0.292050
v 1.185850 0.039825 0.292050
v -6.636692 0.000000 -0.442500
v -6.636692 0.000000 0.442500
v -6.234761 0.000000 -0.442500
v -6.234761 0.000000 0.442500
v -5.832829 0.000000 -0.442500
v -5.832829 0.000000 0.442500
v -5.430898 0.000000 -0.442500
v -5.430898 0.000000 0.442500
v -5.028967 0.000000 -0.442500
v -5.028967 0.000000 0.442500
v -4.627036 0.000000 -0.442500
v -4.627036 0.000000 0.442500
v -4.225105 0.000000 -0.442500
v -4.225105 0.000000 0.442500
v -3.823174 0.000000 -0.442500
v -3.823174 0.000000 0.442500
v -3.421242 0.000000 -0.442500
v -3.421242 0.000000 0.442500
v -3.019311 0.000000 -0.442500
v -3.019311 0.000000 0.442500
v -2.617380 0.000000 -0.442500
v -2.617380 0.000000 0.442500
v -2.215449 0.000000 -0.442500
v -2.215449 0.000000 0.442500
v -1.813518 0.000000 -0.442500
v -1.813518 0.000000 0.442500
v -1.411586 0.000000 -0.442500
v -1.411586 0.000000 0.442500
v -1.009656 0.000000 -0.442500
v -1.009656 0.000000 0.442500
v -0.607724 0.000000 -0.442500
v -0.607724 0.000000 0.442500
v -0.205793 0.000000 -0.442500
v -0.205793 0.000000 0.442500
v 0.196138 0.000000 -0.442500
v 0.196138 0.000000 0.442500
v 0.598069 0.000000 -0.442500
v 0.598069 0.000000 0.442500
v 1.000000 0.000000 -0.442500
v 1.000000 0.000000 0.442500
v -6.636692 0.000000 -0.442500
v -6.636692 0.000000 0.442500
v -6.234761 0.000000 -0.442500
v -6.234761 0.000000 0.442500
v -5.832829 0.000000 -0.442500
v -5.832829 0.000000 0.442500
v -5.430898 0.000000 -0.442500
v -5.430898 0.000000 0.442500
v -5.028967 0.000000 -0.442500
v -5.028967 0.000000 0.442500
v -4.627036 0.000000 -0.442500
v -4.627036 0.000000 0.442500
v -4.225105 0.000000 -0.442500
v -4.225105 0.000000 0.442500
v -3.823174 0.000000 -0.442500
v -3.823174 0.000000 0.442500
v -3.421242 0.000000 -0.442500
v -3.421242 0.000000 0.442500
v -3.019311 0.000000 -0.442500
v -3.019311 0.000000 0.442500
v -2.617380 0.000000 -0.442500
v -2.617380 0.000000 0.442500
v -2.215449 0.000000 -0.442500
v -2.215449 0.000000 0.442500
v -1.813518 0.000000 -0.442500
v -1.813518 0.000000 0.442500
v -1.411586 0.000000 -0.442500
v -1.411586 0.000000 0.442500
v -1.009656 0.000000 -0.442500
v -1.009656 0.000000 0.442500
v -0.607724 0.000000 -0.442500
v -0.607724 0.000000 0.442500
v -0.205793 0.000000 -0.442500
v -0.205793 0.000000 0.442500
v 0.196138 0.000000 -0.442500
v 0.196138 0.000000 0.442500
v 0.598069 0.000000 -0.442500
v 0.598069 0.000000 0.442500
v 1.000000 0.000000 -0.442500
v 1.000000 0.000000 0.442500
v -6.636692 0.340725 -0.132526
v -6.636692 0.084075 -0.132974
v -6.234761 0.340725 -0.132526
v -6.234761 0.084075 -0.132974
v -5.832829 0.340725 -0.132526
v -5.832829 0.084075 -0.132974
v -5.430898 0.340725 -0.132526
v -5.430898 0.084075 -0.132974
v -5.028967 0.340725 -0.132526
v -5.028967 0.084075 -0.132974
v -4.627036 0.340725 -0.132526
v -4.627036 0.084075 -0.132974
v -4.225105 0.340725 -0.132526
v -4.225105 0.084075 -0.132974
v -3.823174 0.340725 -0.132526
v -3.823174 0.084075 -0.132974
v -3.421242 0.340725 -0.132526
v -3.421242 0.084075 -0.132974
v -3.019311 0.340725 -0.132526
v -3.019311 0.084075 -0.132974
v -2.617380 0.340725 -0.132526
v -2.617380 0.084075 -0.132974
v -2.215449 0.340725 -0.132526
v -2.215449 0.084075 -0.132974
v -1.813518 0.340725 -0.132526
v -1.813518 0.084075 -0.132974
v -1.411586 0.340725 -0.132526
v -1.411586 0.084075 -0.132974
v -1.009656 0.340725 -0.132526
v -1.009656 0.084075 -0.132974
v -0.607724 0.340725 -0.132526
v -0.607724 0.084075 -0.132974
v -0.205793 0.340725 -0.132526
v -0.205793 0.084075 -0.132974
v 0.196138 0.340725 -0.132526
v 0.196138 0.084075 -0.132974
v 0.598069 0.340725 -0.132526
v 0.598069 0.084075 -0.132974
v 1.000000 0.340725 -0.132526
v 1.000000 0.084075 -0.132974
vn -0.0000 1.0000 -0.0000
vn -0.0000 -0.0000 1.0000
vn -0.0000 -0.0017 1.0000
vt 0.115888 1.000000
vt 0.000000 1.000000
vt 0.000000 0.947368
vt 0.115888 0.947368
vt 0.000000 0.894737
vt 0.115888 0.894737
vt 0.000000 0.842105
vt 0.115888 0.842105
vt 0.000000 0.789474
vt 0.115888 0.789474
vt 0.000000 0.736842
vt 0.115888 0.736842
vt 0.000000 0.684211
vt 0.115888 0.684211
vt 0.000000 0.631579
vt 0.115888 0.631579
vt 0.000000 0.578947
vt 0.115888 0.578947
vt 0.000000 0.526316
vt 0.115888 0.526316
vt 0.000000 0.473684
vt 0.115888 0.473684
vt 0.000000 0.421053
vt 0.115888 0.421053
vt 0.000000 0.368421
vt 0.115888 0.368421
vt 0.000000 0.315789
vt 0.115888 0.315789
vt 0.000000 0.263158
vt 0.115888 0.263158
vt 0.000000 0.210526
vt 0.115888 0.210526
vt 0.000000 0.157895
vt 0.115888 0.157895
vt 0.000000 0.105263
vt 0.115888 0.105263
vt 0.000000 0.052632
vt 0.115888 0.052632
vt 0.000000 -0.000000
vt 0.115888 0.000000
vt 0.347664 0.000000
vt 0.463552 0.000000
vt 0.463552 0.052632
vt 0.347664 0.052632
vt 0.463552 0.105263
vt 0.347664 0.105263
vt 0.463552 0.157895
vt 0.347664 0.157895
vt 0.463552 0.210526
vt 0.347664 0.210526
vt 0.463552 0.263158
vt 0.347664 0.263158
vt 0.463552 0.315789
vt 0.347664 0.315789
vt 0.463552 0.368421
vt 0.347664 0.368421
vt 0.463552 0.421053
vt 0.347664 0.421053
vt 0.463552 0.473684
vt 0.347664 0.473684
vt 0.463552 0.526316
vt 0.347664 0.526316
vt 0.463552 0.578947
vt 0.347664 0.578947
vt 0.463552 0.631579
vt 0.347664 0.631579
vt 0.463552 0.684211
vt 0.347664 0.684211
vt 0.463552 0.736842
vt 0.347664 0.736842
vt 0.463552 0.789474
vt 0.347664 0.789474
vt 0.463552 0.842105
vt 0.347664 0.842105
vt 0.463552 0.894737
vt 0.347664 0.894737
vt 0.463552 0.947369
vt 0.347664 0.947369
vt 0.463552 1.000000
vt 0.347664 1.000000
vt 0.463552 -0.000000
vt 0.497159 -0.000000
vt 0.497159 0.052632
vt 0.463552 0.052632
vt 0.497159 0.105263
vt 0.463552 0.105263
vt 0.497159 0.157895
vt 0.463552 0.157895
vt 0.497159 0.210526
vt 0.463552 0.210526
vt 0.497159 0.263158
vt 0.463552 0.263158
vt 0.497159 0.315789
vt 0.463552 0.315789
vt 0.497159 0.368421
vt 0.463552 0.368421
vt 0.497159 0.421053
vt 0.463552 0.421053
vt 0.497159 0.473684
vt 0.463552 0.473684
vt 0.497159 0.526316
vt 0.463552 0.526316
vt 0.497159 0.578947
vt 0.463552 0.578947
vt 0.497159 0.631579
vt 0.463552 0.631579
vt 0.497159 0.684211
vt 0.463552 0.684211
vt 0.497159 0.736842
vt 0.463552 0.736842
vt 0.497159 0.789474
vt 0.463552 0.789474
vt 0.497159 0.842105
vt 0.463552 0.842105
vt 0.497159 0.894737
vt 0.463552 0.894737
vt 0.497159 0.947368
vt 0.463552 0.947368
vt 0.497159 1.000000
vt 0.463552 1.000000
vt 0.231776 1.000000
vt 0.115888 1.000000
vt 0.115888 0.947368
vt 0.231776 0.947368
vt 0.115888 0.894737
vt 0.231776 0.894737
vt 0.115888 0.842105
vt 0.231776 0.842105
vt 0.115888 0.789474
vt 0.231776 0.789474
vt 0.115888 0.736842
vt 0.231776 0.736842
vt 0.115888 0.684211
vt 0.231776 0.684211
vt 0.115888 0.631579
vt 0.231776 0.631579
vt 0.115888 0.578947
vt 0.231776 0.578947
vt 0.115888 0.526316
vt 0.231776 0.526316
vt 0.115888 0.473684
vt 0.231776 0.473684
vt 0.115888 0.421053
vt 0.231776 0.421053
vt 0.115888 0.368421
vt 0.231776 0.368421
vt 0.115888 0.315789
vt 0.231776 0.315789
vt 0.115888 0.263158
vt 0.231776 0.263158
vt 0.115888 0.210526
vt 0.231776 0.210526
vt 0.115888 0.157895
vt 0.231776 0.157895
vt 0.115888 0.105263
vt 0.231776 0.105263
vt 0.115888 0.052632
vt 0.231776 0.052632
vt 0.115888 -0.000000
vt 0.231776 0.000000
vt 0.347664 1.000000
vt 0.231776 1.000000
vt 0.231776 0.947368
vt 0.347664 0.947368
vt 0.231776 0.894737
vt 0.347664 0.894737
vt 0.231776 0.842105
vt 0.347664 0.842105
vt 0.231776 0.789474
vt 0.347664 0.789474
vt 0.231776 0.736842
vt 0.347664 0.736842
vt 0.231776 0.684211
vt 0.347664 0.684211
vt 0.231776 0.631579
vt 0.347664 0.631579
vt 0.231776 0.578947
vt 0.347664 0.578947
vt 0.231776 0.526316
vt 0.347664 0.526316
vt 0.231776 0.473684
vt 0.347664 0.473684
vt 0.231776 0.421053
vt 0.347664 0.421053
vt 0.231776 0.368421
vt 0.347664 0.368421
vt 0.231776 0.315789
vt 0.347664 0.315789
vt 0.231776 0.263158
vt 0.347664 0.263158
vt 0.231776 0.210526
vt 0.347664 0.210526
vt 0.231776 0.157895
vt 0.347664 0.157895
vt 0.231776 0.105263
vt 0.347664 0.105263
vt 0.231776 0.052632
vt 0.347664 0.052632
vt 0.231776 -0.000000
vt 0.347664 0.000000
vt 0.497159 -0.000000
vt 0.530767 -0.000000
vt 0.530767 0.052632
vt 0.497159 0.052632
vt 0.530767 0.105263
vt 0.497159 0.105263
vt 0.530767 0.157895
vt 0.497159 0.157895
vt 0.530767 0.210526
vt 0.497159 0.210526
vt 0.530767 0.263158
vt 0.497159 0.263158
vt 0.530767 0.315789
vt 0.497159 0.315789
vt 0.530767 0.368421
vt 0.497159 0.368421
vt 0.530767 0.421053
vt 0.497159 0.421053
vt 0.530767 0.473684
vt 0.497159 0.473684
vt 0.530767 0.526316
vt 0.497159 0.526316
vt 0.530767 0.578947
vt 0.497159 0.578947
vt 0.530767 0.631579
vt 0.497159 0.631579
vt 0.530767 0.684211
vt 0.497159 0.684211
vt 0.530767 0.736842
vt 0.497159 0.736842
vt 0.530767 0.789474
vt 0.497159 0.789474
vt 0.530767 0.842105
vt 0.497159 0.842105
vt 0.530767 0.894737
vt 0.497159 0.894737
vt 0.530767 0.947368
vt 0.497159 0.947368
vt 0.530767 1.000000
vt 0.497159 1.000000
s 1
usemtl ink
f 1/1/1 2/2/1 4/3/1 3/4/1
f 3/4/1 4/3/1 6/5/1 5/6/1
f 5/6/1 6/5/1 8/7/1 7/8/1
f 7/8/1 8/7/1 10/9/1 9/10/1
f 9/10/1 10/9/1 12/11/1 11/12/1
f 11/12/1 12/11/1 14/13/1 13/14/1
f 13/14/1 14/13/1 16/15/1 15/16/1
f 15/16/1 16/15/1 18/17/1 17/18/1
f 17/18/1 18/17/1 20/19/1 19/20/1
f 19/20/1 20/19/1 22/21/1 21/22/1
f 21/22/1 22/21/1 24/23/1 23/24/1
f 23/24/1 24/23/1 26/25/1 25/26/1
f 25/26/1 26/25/1 28/27/1 27/28/1
f 27/28/1 28/27/1 30/29/1 29/30/1
f 29/30/1 30/29/1 32/31/1 31/32/1
f 31/32/1 32/31/1 34/33/1 33/34/1
f 33/34/1 34/33/1 36/35/1 35/36/1
f 35/36/1 36/35/1 38/37/1 37/38/1
f 37/38/1 38/37/1 40/39/1 39/40/1
f 41/41/2 42/42/2 44/43/2 43/44/2
f 43/44/2 44/43/2 46/45/2 45/46/2
f 45/46/2 46/45/2 48/47/2 47/48/2
f 47/48/2 48/47/2 50/49/2 49/50/2
f 49/50/2 50/49/2 52/51/2 51/52/2
f 51/52/2 52/51/2 54/53/2 53/54/2
f 53/54/2 54/53/2 56/55/2 55/56/2
f 55/56/2 56/55/2 58/57/2 57/58/2
f 57/58/2 58/57/2 60/59/2 59/60/2
f 59/60/2 60/59/2 62/61/2 61/62/2
f 61/62/2 62/61/2 64/63/2 63/64/2
f 63/64/2 64/63/2 66/65/2 65/66/2
f 65/66/2 66/65/2 68/67/2 67/68/2
f 67/68/2 68/67/2 70/69/2 69/70/2
f 69/70/2 70/69/2 72/71/2 71/72/2
f 71/72/2 72/71/2 74/73/2 73/74/2
f 73/74/2 74/73/2 76/75/2 75/76/2
f 75/76/2 76/75/2 78/77/2 77/78/2
f 77/78/2 78/77/2 80/79/2 79/80/2
f 81/81/2 82/82/2 84/83/2 83/84/2
f 83/84/2 84/83/2 86/85/2 85/86/2
f 85/86/2 86/85/2 88/87/2 87/88/2
f 87/88/2 88/87/2 90/89/2 89/90/2
f 89/90/2 90/89/2 92/91/2 91/92/2
f 91/92/2 92/91/2 94/93/2 93/94/2
f 93/94/2 94/93/2 96/95/2 95/96/2
f 95/96/2 96/95/2 98/97/2 97/98/2
f 97/98/2 98/97/2 100/99/2 99/100/2
f 99/100/2 100/99/2 102/101/2 101/102/2
f 101/102/2 102/101/2 104/103/2 103/104/2
f 103/104/2 104/103/2 106/105/2 105/106/2
f 105/106/2 106/105/2 108/107/2 107/108/2
f 107/108/2 108/107/2 110/109/2 109/110/2
f 109/110/2 110/109/2 112/111/2 111/112/2
f 111/112/2 112/111/2 114/113/2 113/114/2
f 113/114/2 114/113/2 116/115/2 115/116/2
f 115/116/2 116/115/2 118/117/2 117/118/2
f 117/118/2 118/117/2 120/119/2 119/120/2
f 121/121/1 122/122/1 124/123/1 123/124/1
f 123/124/1 124/123/1 126/125/1 125/126/1
f 125/126/1 126/125/1 128/127/1 127/128/1
f 127/128/1 128/127/1 130/129/1 129/130/1
f 129/130/1 130/129/1 132/131/1 131/132/1
f 131/132/1 132/131/1 134/133/1 133/134/1
f 133/134/1 134/133/1 136/135/1 135/136/1
f 135/136/1 136/135/1 138/137/1 137/138/1
f 137/138/1 138/137/1 140/139/1 139/140/1
f 139/140/1 140/139/1 142/141/1 141/142/1
f 141/142/1 142/141/1 144/143/1 143/144/1
f 143/144/1 144/143/1 146/145/1 145/146/1
f 145/146/1 146/145/1 148/147/1 147/148/1
f 147/148/1 148/147/1 150/149/1 149/150/1
f 149/150/1 150/149/1 152/151/1 151/152/1
f 151/152/1 152/151/1 154/153/1 153/154/1
f 153/154/1 154/153/1 156/155/1 155/156/1
f 155/156/1 156/155/1 158/157/1 157/158/1
f 157/158/1 158/157/1 160/159/1 159/160/1
f 161/161/1 162/162/1 164/163/1 163/164/1
f 163/164/1 164/163/1 166/165/1 165/166/1
f 165/166/1 166/165/1 168/167/1 167/168/1
f 167/168/1 168/167/1 170/169/1 169/170/1
f 169/170/1 170/169/1 172/171/1 171/172/1
f 171/172/1 172/171/1 174/173/1 173/174/1
f 173/174/1 174/173/1 176/175/1 175/176/1
f 175/176/1 176/175/1 178/177/1 177/178/1
f 177/178/1 178/177/1 180/179/1 179/180/1
f 179/180/1 180/179/1 182/181/1 181/182/1
f 181/182/1 182/181/1 184/183/1 183/184/1
f 183/184/1 184/183/1 186/185/1 185/186/1
f 185/186/1 186/185/1 188/187/1 187/188/1
f 187/188/1 188/187/1 190/189/1 189/190/1
f 189/190/1 190/189/1 192/191/1 191/192/1
f 191/192/1 192/191/1 194/193/1 193/194/1
f 193/194/1 194/193/1 196/195/1 195/196/1
f 195/196/1 196/195/1 198/197/1 197/198/1
f 197/198/1 198/197/1 200/199/1 199/200/1
f 201/201/3 202/202/3 204/203/3 203/204/3
f 203/204/3 204/203/3 206/205/3 205/206/3
f 205/206/3 206/205/3 208/207/3 207/208/3
f 207/208/3 208/207/3 210/209/3 209/210/3
f 209/210/3 210/209/3 212/211/3 211/212/3
f 211/212/3 212/211/3 214/213/3 213/214/3
f 213/214/3 214/213/3 216/215/3 215/216/3
f 215/216/3 216/215/3 218/217/3 217/218/3
f 217/218/3 218/217/3 220/219/3 219/220/3
f 219/220/3 220/219/3 222/221/3 221/222/3
f 221/222/3 222/221/3 224/223/3 223/224/3
f 223/224/3 224/223/3 226/225/3 225/226/3
f 225/226/3 226/225/3 228/227/3 227/228/3
f 227/228/3 228/227/3 230/229/3 229/230/3
f 229/230/3 230/229/3 232/231/3 231/232/3
f 231/232/3 232/231/3 234/233/3 233/234/3
f 233/234/3 234/233/3 236/235/3 235/236/3
f 235/236/3 236/235/3 238/237/3 237/238/3
f 237/238/3 238/237/3 240/239/3 239/240/3
