# Blender 4.1.0
# www.blender.org
mtllib 3D1.mtl
o Circle
v 0.000000 -0.000000 -1.000000
v -0.195090 -0.000000 -0.980785
v -0.382683 -0.000000 -0.923880
v -0.555570 -0.000000 -0.831470
v -0.707107 -0.000000 -0.707107
v -0.831470 -0.000000 -0.555570
v -0.923880 -0.000000 -0.382683
v -0.980785 -0.000000 -0.195090
v 0.980785 -0.000000 -0.195090
v 0.923880 -0.000000 -0.382683
v 0.831470 -0.000000 -0.555570
v 0.707107 -0.000000 -0.707107
v 0.555570 -0.000000 -0.831470
v 0.382683 -0.000000 -0.923880
v 0.195090 -0.000000 -0.980785
v 0.000078 0.000000 0.002239
v 0.000000 -0.000000 -1.000000
v -0.195090 -0.000000 -0.980785
v -0.382683 -0.000000 -0.923880
v -0.555570 -0.000000 -0.831470
v -0.707107 -0.000000 -0.707107
v -0.831470 -0.000000 -0.555570
v -0.923880 -0.000000 -0.382683
v -0.980785 -0.000000 -0.195090
v 0.980785 -0.000000 -0.195090
v 0.923880 -0.000000 -0.382683
v 0.831470 -0.000000 -0.555570
v 0.707107 -0.000000 -0.707107
v 0.000078 0.000000 0.002239
v 0.555570 -0.000000 -0.831470
v 0.382683 -0.000000 -0.923880
v 0.195090 -0.000000 -0.980785
v 0.000000 -0.000000 -1.000000
v -0.195090 -0.000000 -0.980785
v -0.382683 -0.000000 -0.923880
v -0.555570 -0.000000 -0.831470
v -0.707107 -0.000000 -0.707107
v -0.831470 -0.000000 -0.555570
v -0.923880 -0.000000 -0.382683
v -0.980785 -0.000000 -0.195090
v 0.980785 -0.000000 -0.195090
v 0.923880 -0.000000 -0.382683
v 0.831470 -0.000000 -0.555570
v 0.707107 -0.000000 -0.707107
v 0.000078 0.000000 0.002239
v 0.555570 -0.000000 -0.831470
v 0.382683 -0.000000 -0.923880
v 0.195090 -0.000000 -0.980785
v 0.000000 0.068890 -1.000000
v -0.195090 0.068890 -0.980785
v -0.382683 0.068890 -0.923880
v -0.555570 0.068890 -0.831470
v -0.707107 0.068890 -0.707107
v -0.831470 0.068890 -0.555570
v -0.923880 0.068890 -0.382683
v -0.980785 0.068890 -0.195090
v 0.980785 0.068890 -0.195090
v 0.923880 0.068890 -0.382683
v 0.831470 0.068890 -0.555570
v 0.707107 0.068890 -0.707107
v 0.555570 0.068890 -0.831470
v 0.382683 0.068890 -0.923880
v 0.195090 0.068890 -0.980785
v 0.000078 0.068890 0.002239
v 0.000000 0.068890 -1.000000
v -0.195090 0.068890 -0.980785
v -0.382683 0.068890 -0.923880
v -0.555570 0.068890 -0.831470
v -0.707107 0.068890 -0.707107
v -0.831470 0.068890 -0.555570
v -0.923880 0.068890 -0.382683
v -0.980785 0.068890 -0.195090
v 0.980785 0.068890 -0.195090
v 0.923880 0.068890 -0.382683
v 0.831470 0.068890 -0.555570
v 0.707107 0.068890 -0.707107
v 0.000078 0.068890 0.002239
v 0.555570 0.068890 -0.831470
v 0.382683 0.068890 -0.923880
v 0.195090 0.068890 -0.980785
v 0.000000 0.068890 -1.000000
v -0.195090 0.068890 -0.980785
v -0.382683 0.068890 -0.923880
v -0.555570 0.068890 -0.831470
v -0.707107 0.068890 -0.707107
v -0.831470 0.068890 -0.555570
v -0.923880 0.068890 -0.382683
v -0.980785 0.068890 -0.195090
v 0.980785 0.068890 -0.195090
v 0.923880 0.068890 -0.382683
v 0.831470 0.068890 -0.555570
v 0.707107 0.068890 -0.707107
v 0.000078 0.068890 0.002239
v 0.555570 0.068890 -0.831470
v 0.382683 0.068890 -0.923880
v 0.195090 0.068890 -0.980785
vn -0.0000 -1.0000 -0.0000
vn -0.0000 -0.0000 1.0000
vn -0.0000 1.0000 -0.0000
vn 0.9569 -0.0000 -0.2903
vn -0.0980 -0.0000 -0.9952
vn 0.2903 -0.0000 -0.9569
vn 0.8819 -0.0000 -0.4714
vn -0.2903 -0.0000 -0.9569
vn 0.7730 -0.0000 -0.6344
vn -0.4714 -0.0000 -0.8819
vn 0.1973 -0.0000 0.9804
vn -0.6344 -0.0000 -0.7730
vn 0.4714 -0.0000 -0.8819
vn -0.7730 -0.0000 -0.6344
vn 0.0980 -0.0000 -0.9952
vn -0.8819 -0.0000 -0.4714
vn -0.1972 -0.0000 0.9804
vn -0.9569 -0.0000 -0.2903
vn 0.6344 -0.0000 -0.7730
vt 0.500000 1.000000
vt 0.597545 0.990393
vt 0.691342 0.961940
vt 0.777785 0.915735
vt 0.853553 0.853553
vt 0.915735 0.777785
vt 0.961940 0.691342
vt 0.990393 0.597545
vt 0.500039 0.498881
vt 0.009607 0.597545
vt 0.038060 0.691342
vt 0.084265 0.777785
vt 0.146447 0.853553
vt 0.222215 0.915735
vt 0.308658 0.961940
vt 0.402455 0.990393
s 0
f 17/1/1 32/2/1 31/3/1 30/4/1 28/5/1 27/6/1 26/7/1 25/8/1 29/9/1 24/10/1 23/11/1 22/12/1 21/13/1 20/14/1 19/15/1 18/16/1
f 34/16/2 2/16/2 1/1/2 33/1/2
f 35/15/2 3/15/2 2/16/2 34/16/2
f 36/14/2 4/14/2 3/15/2 35/15/2
f 37/13/2 5/13/2 4/14/2 36/14/2
f 38/12/2 6/12/2 5/13/2 37/13/2
f 39/11/2 7/11/2 6/12/2 38/12/2
f 40/10/2 8/10/2 7/11/2 39/11/2
f 42/7/2 10/7/2 9/8/2 41/8/2
f 43/6/2 11/6/2 10/7/2 42/7/2
f 44/5/2 12/5/2 11/6/2 43/6/2
f 41/8/2 9/8/2 16/9/2 45/9/2
f 47/3/2 14/3/2 13/4/2 46/4/2
f 33/1/2 1/1/2 15/2/2 48/2/2
f 45/9/2 16/9/2 8/10/2 40/10/2
f 46/4/2 13/4/2 12/5/2 44/5/2
f 48/2/2 15/2/2 14/3/2 47/3/2
f 18/16/2 34/16/2 33/1/2 17/1/2
f 19/15/2 35/15/2 34/16/2 18/16/2
f 20/14/2 36/14/2 35/15/2 19/15/2
f 21/13/2 37/13/2 36/14/2 20/14/2
f 22/12/2 38/12/2 37/13/2 21/13/2
f 23/11/2 39/11/2 38/12/2 22/12/2
f 24/10/2 40/10/2 39/11/2 23/11/2
f 26/7/2 42/7/2 41/8/2 25/8/2
f 27/6/2 43/6/2 42/7/2 26/7/2
f 28/5/2 44/5/2 43/6/2 27/6/2
f 25/8/2 41/8/2 45/9/2 29/9/2
f 31/3/2 47/3/2 46/4/2 30/4/2
f 17/1/2 33/1/2 48/2/2 32/2/2
f 29/9/2 45/9/2 40/10/2 24/10/2
f 30/4/2 46/4/2 44/5/2 28/5/2
f 32/2/2 48/2/2 47/3/2 31/3/2
f 65/1/3 66/16/3 67/15/3 68/14/3 69/13/3 70/12/3 71/11/3 72/10/3 77/9/3 73/8/3 74/7/3 75/6/3 76/5/3 78/4/3 79/3/3 80/2/3
f 82/16/2 81/1/2 49/1/2 50/16/2
f 83/15/2 82/16/2 50/16/2 51/15/2
f 84/14/2 83/15/2 51/15/2 52/14/2
f 85/13/2 84/14/2 52/14/2 53/13/2
f 86/12/2 85/13/2 53/13/2 54/12/2
f 87/11/2 86/12/2 54/12/2 55/11/2
f 88/10/2 87/11/2 55/11/2 56/10/2
f 90/7/2 89/8/2 57/8/2 58/7/2
f 91/6/2 90/7/2 58/7/2 59/6/2
f 92/5/2 91/6/2 59/6/2 60/5/2
f 89/8/2 93/9/2 64/9/2 57/8/2
f 95/3/2 94/4/2 61/4/2 62/3/2
f 81/1/2 96/2/2 63/2/2 49/1/2
f 93/9/2 88/10/2 56/10/2 64/9/2
f 94/4/2 92/5/2 60/5/2 61/4/2
f 96/2/2 95/3/2 62/3/2 63/2/2
f 66/16/2 65/1/2 81/1/2 82/16/2
f 67/15/2 66/16/2 82/16/2 83/15/2
f 68/14/2 67/15/2 83/15/2 84/14/2
f 69/13/2 68/14/2 84/14/2 85/13/2
f 70/12/2 69/13/2 85/13/2 86/12/2
f 71/11/2 70/12/2 86/12/2 87/11/2
f 72/10/2 71/11/2 87/11/2 88/10/2
f 74/7/2 73/8/2 89/8/2 90/7/2
f 75/6/2 74/7/2 90/7/2 91/6/2
f 76/5/2 75/6/2 91/6/2 92/5/2
f 73/8/2 77/9/2 93/9/2 89/8/2
f 79/3/2 78/4/2 94/4/2 95/3/2
f 65/1/2 80/2/2 96/2/2 81/1/2
f 77/9/2 72/10/2 88/10/2 93/9/2
f 78/4/2 76/5/2 92/5/2 94/4/2
f 80/2/2 79/3/2 95/3/2 96/2/2
f 9/8/4 10/7/4 58/7/4 57/8/4
f 1/1/5 2/16/5 50/16/5 49/1/5
f 14/3/6 15/2/6 63/2/6 62/3/6
f 10/7/7 11/6/7 59/6/7 58/7/7
f 2/16/8 3/15/8 51/15/8 50/16/8
f 11/6/9 12/5/9 60/5/9 59/6/9
f 3/15/10 4/14/10 52/14/10 51/15/10
f 16/9/11 9/8/11 57/8/11 64/9/11
f 4/14/12 5/13/12 53/13/12 52/14/12
f 13/4/13 14/3/13 62/3/13 61/4/13
f 5/13/14 6/12/14 54/12/14 53/13/14
f 15/2/15 1/1/15 49/1/15 63/2/15
f 6/12/16 7/11/16 55/11/16 54/12/16
f 8/10/17 16/9/17 64/9/17 56/10/17
f 7/11/18 8/10/18 56/10/18 55/11/18
f 12/5/19 13/4/19 61/4/19 60/5/19
